<svg width="39" height="23" viewBox="0 0 39 23" fill="none" xmlns="http://www.w3.org/2000/svg">
<path fill-rule="evenodd" clip-rule="evenodd" d="M21.4891 0C10.4644 9.05601 2.51384 12.2548 0 12.7261L0.0325714 13.714C4.12953 14.2056 10.1667 15.2374 14.9711 16.7301C17.3799 17.4785 19.4369 18.3303 20.7846 19.2638C21.4584 19.7305 21.9206 20.1945 22.1727 20.6439C22.4152 21.0761 22.4674 21.4979 22.3191 21.9426L23.2678 22.2588C23.5144 21.519 23.4102 20.8058 23.0448 20.1546C22.6891 19.5206 22.0918 18.9528 21.354 18.4417C19.8784 17.4197 17.7036 16.5319 15.2678 15.7751C11.2375 14.5229 6.37777 13.5953 2.48226 13.0308C6.32497 11.6204 13.275 8.04143 22.1238 0.772727L21.4891 0ZM12.9233 11.7435H38.0922V10.7435H12.9233V11.7435Z" fill="white"/>
</svg>
