<svg width="41" height="39" viewBox="0 0 41 39" fill="none" xmlns="http://www.w3.org/2000/svg">
<circle cx="21" cy="19" r="5.5" stroke="white"/>
<path d="M29.5 2C28 4 26.3149 5 24.8149 7.5L22.5 7L19 6.5L18.5 1L9.5 3.5L11 9L10 11.5L9 13.5L1.5 12L1 16V21H8L9 23.5L10 26L5.5 32L13.5 36L16.5 31H22.5L25 37.5L33.5 35L30 28.5C30 28.5 30.4142 27.0858 31 26.5C31.5858 25.9142 32.5 24.5 32.5 24.5L35.5 25.5L39.5 26.5L40 23.5V18.5H33L32.5 16C31.9142 14.8284 32.0858 14.1716 31.5 13L35.5 7.5L32.5 4.5L29.5 2Z" stroke="white"/>
</svg>
